<svg xmlns="http://www.w3.org/2000/svg" version="1.0" width="1648.000000pt" height="606.000000pt" viewBox="-3 -3 1654 612" preserveAspectRatio="xMidYMid meet"><g id="deeditor_bgCarrier" stroke-width="0">
  <rect id="dee_c_e" x="-3" y="-3" width="1654" height="612" rx="38.4" fill="#522121" strokewidth="0"/>
</g>

<g transform="translate(0.000000,606.000000) scale(0.100000,-0.100000)" fill="#f5f5dc" stroke="none">
<path d="M3173 4585 c-46 -30 -87 -55 -92 -55 -5 0 -52 -28 -103 -63 -51 -34 -141 -93 -199 -130 -59 -37 -114 -76 -124 -87 -10 -11 -22 -20 -26 -20 -7 0 -344 -223 -409 -272 l-31 -23 2 -292 3 -293 48 0 48 0 -1 266 c0 299 -2 287 76 326 22 11 61 36 86 54 26 19 49 34 52 34 2 0 36 21 74 48 38 26 193 129 344 229 151 100 286 191 301 202 35 28 53 26 86 -5 15 -14 56 -45 92 -70 36 -24 90 -62 120 -84 30 -23 82 -59 115 -82 33 -23 66 -48 73 -55 8 -7 28 -21 45 -29 16 -9 46 -31 66 -49 42 -39 203 -155 246 -178 61 -33 85 -60 90 -102 6 -66 6 -1462 -1 -1479 -10 -25 -35 -28 -255 -29 -172 -1 -212 1 -224 13 -12 13 -14 89 -16 494 l-1 478 -269 -4 c-148 -2 -272 -7 -275 -11 -4 -4 6 -24 23 -45 l30 -37 189 -5 189 -5 13 -40 c21 -61 13 -799 -8 -819 -12 -12 -58 -15 -245 -17 -126 -1 -235 -4 -242 -6 -20 -8 -16 -19 18 -58 l31 -35 569 0 568 0 -4 273 c-6 375 -7 650 -3 1071 l3 359 -91 62 c-50 34 -122 85 -160 113 -38 28 -84 61 -102 74 -19 13 -55 41 -82 63 -56 47 -197 151 -255 188 -22 15 -59 40 -83 57 -23 16 -45 30 -47 30 -3 0 -26 15 -52 34 -42 29 -106 66 -115 66 -2 0 -40 -25 -85 -55z m-28 -75 c-10 -11 -21 -17 -25 -15 -5 3 -10 2 -12 -2 -1 -5 -19 -16 -38 -27 l-35 -18 30 26 c27 23 34 27 50 26 3 -1 13 6 21 15 23 22 30 18 9 -5z m-304 -193 c-10 -9 -11 -8 -5 6 3 10 9 15 12 12 3 -3 0 -11 -7 -18z" fill="#f5f5dc"/>
<path d="M5935 4390 c-97 -15 -189 -91 -224 -186 -20 -52 -21 -75 -21 -450 l0 -395 27 -55 c40 -82 95 -131 174 -154 83 -25 110 -25 187 1 71 24 151 96 185 169 21 43 22 61 25 399 4 450 -3 501 -94 601 -52 58 -158 86 -259 70z m104 -223 c45 -23 50 -62 50 -406 1 -324 -2 -351 -37 -393 -17 -21 -69 -24 -107 -6 -54 24 -56 39 -55 405 2 336 3 356 38 396 18 20 76 23 111 4z" fill="#f5f5dc"/>
<path d="M5130 4371 c-109 -24 -176 -93 -208 -216 -24 -88 -7 -807 19 -856 37 -66 97 -124 150 -144 146 -52 295 5 377 144 26 45 26 47 30 286 4 215 3 242 -12 254 -18 15 -221 26 -264 15 -22 -6 -23 -10 -20 -97 3 -83 5 -92 25 -103 60 -29 65 -41 61 -146 -4 -120 -21 -151 -87 -156 -36 -3 -46 1 -76 31 l-35 35 1 326 0 326 32 47 c27 41 38 48 68 51 30 2 42 -3 68 -28 29 -30 31 -36 31 -109 l0 -78 54 -7 c30 -3 75 -3 100 0 l46 7 1 56 c2 133 -2 165 -31 220 -33 65 -70 103 -121 124 -44 18 -162 28 -209 18z" fill="#f5f5dc"/>
<path d="M9102 4372 l-72 -3 2 -607 3 -607 85 0 c81 0 84 1 91 25 4 14 7 118 8 231 1 240 1 239 90 239 70 0 107 -22 115 -69 3 -20 6 -122 6 -227 0 -166 2 -193 16 -198 9 -3 49 -6 90 -6 68 0 74 2 79 23 8 33 11 1184 3 1192 -6 6 -178 8 -184 2 -1 -1 -4 -106 -6 -234 -4 -276 0 -266 -107 -267 -102 -1 -100 -7 -102 214 -1 236 -6 287 -28 292 -9 1 -49 2 -89 0z" fill="#f5f5dc"/>
<path d="M7076 4362 c-29 -7 -30 -9 -53 -132 -13 -69 -33 -174 -44 -235 -20 -102 -29 -154 -45 -247 -12 -73 -56 -76 -74 -6 -6 24 -15 59 -20 78 -5 19 -17 73 -26 120 -9 47 -20 103 -26 125 -12 52 -14 70 -29 193 l-12 103 -141 -3 -141 -3 -3 -540 c-2 -297 0 -568 3 -602 l7 -63 88 0 c83 0 88 1 93 23 3 12 6 97 7 190 1 160 8 217 29 217 15 0 41 -30 41 -46 0 -8 13 -69 29 -137 16 -67 35 -150 42 -184 15 -70 10 -67 119 -63 55 2 65 10 75 58 4 20 11 57 15 82 5 25 13 68 19 96 25 132 47 177 78 158 16 -10 19 -32 23 -200 l5 -189 86 -3 86 -3 7 46 c3 26 9 294 13 595 4 405 3 553 -5 563 -13 15 -191 21 -246 9z" fill="#f5f5dc"/>
<path d="M7681 4348 c-5 -13 -21 -93 -36 -178 -14 -85 -32 -191 -40 -235 -43 -235 -76 -424 -80 -455 -2 -19 -9 -66 -15 -105 -18 -107 -27 -199 -22 -212 3 -9 31 -13 93 -13 102 0 99 -2 118 100 22 112 38 147 75 160 43 14 102 -5 128 -41 11 -14 23 -54 28 -90 5 -35 13 -77 18 -94 8 -30 9 -30 88 -33 43 -1 85 2 92 6 11 7 11 25 3 93 -13 104 -21 150 -28 169 -3 8 -7 35 -9 60 -5 48 -19 129 -34 195 -5 22 -11 60 -14 85 -2 25 -11 86 -20 135 -8 50 -20 122 -27 160 -6 39 -13 77 -16 85 -3 8 -7 35 -10 60 -2 25 -9 72 -16 105 l-12 60 -128 3 c-124 3 -127 2 -136 -20z m151 -530 c14 -12 38 -118 38 -171 0 -20 -6 -27 -30 -32 -16 -4 -39 -3 -50 0 -20 6 -21 11 -15 93 9 114 22 138 57 110z" fill="#f5f5dc"/>
<path d="M8367 4363 l-68 -4 3 -87 3 -87 70 -8 c52 -5 76 -13 92 -30 l22 -22 2 -440 c1 -242 4 -460 8 -485 l6 -45 81 -3 82 -3 6 58 c3 32 4 234 3 448 -2 215 1 408 5 430 13 60 36 76 120 89 l73 11 0 75 c-1 120 18 110 -227 108 -117 -1 -244 -3 -281 -5z" fill="#f5f5dc"/>
<path d="M9983 4358 c-6 -7 -22 -87 -37 -178 -14 -91 -48 -289 -75 -440 -53 -300 -79 -470 -83 -540 l-3 -45 97 -3 97 -3 6 28 c3 15 10 44 15 63 5 19 12 59 16 88 8 65 29 82 99 82 63 0 88 -23 106 -95 6 -27 15 -60 20 -73 5 -13 9 -36 9 -53 0 -34 24 -48 78 -44 17 1 50 2 72 3 47 2 47 4 26 133 -8 46 -19 120 -25 164 -7 44 -16 96 -21 115 -5 19 -14 73 -20 120 -6 47 -15 108 -20 135 -8 42 -22 128 -45 275 -2 14 -9 72 -15 128 -18 163 -6 152 -159 152 -91 0 -131 -4 -138 -12z m156 -551 c6 -8 16 -49 23 -92 11 -73 11 -78 -8 -92 -10 -7 -32 -13 -49 -11 l-30 3 0 86 c0 58 5 92 14 103 16 19 35 21 50 3z" fill="#f5f5dc"/>
<path d="M3208 3983 l-87 -4 -3 -127 c-2 -70 -1 -132 0 -139 3 -8 31 -11 100 -7 54 2 100 4 105 4 4 0 7 60 7 134 0 113 -2 135 -16 140 -9 3 -16 5 -17 4 -1 -1 -41 -4 -89 -5z" fill="#f5f5dc"/>
<path d="M2855 3572 c-61 -5 -75 -13 -100 -56 -20 -35 -23 -48 -16 -72 36 -113 2 -146 -80 -77 -21 18 -46 28 -82 31 l-52 5 33 -37 c37 -43 33 -58 -21 -75 -83 -26 -243 -31 -1139 -35 -928 -3 -937 -4 -970 -24 -19 -12 -45 -40 -58 -64 l-25 -43 0 -295 c0 -162 1 -346 3 -407 l3 -113 30 0 29 0 0 395 c0 429 2 446 55 481 48 31 51 21 60 -226 4 -111 13 -213 27 -279 21 -109 21 -193 -2 -281 -21 -80 -22 -181 -6 -380 9 -107 19 -231 22 -275 8 -125 8 -125 54 -125 37 0 40 2 41 28 0 15 3 137 5 272 l5 244 36 64 c28 50 40 62 56 60 22 -3 33 -30 79 -193 33 -119 38 -137 57 -235 11 -52 31 -129 44 -170 24 -75 24 -75 58 -72 18 1 35 5 38 7 2 3 -1 51 -8 107 -6 57 -16 150 -22 208 -5 58 -16 141 -24 185 -17 97 -21 157 -11 173 5 8 40 12 107 12 l100 0 48 45 c81 75 61 73 682 75 509 1 555 2 571 18 18 18 79 123 137 237 20 39 49 92 65 119 33 54 13 51 166 27 98 -16 330 -32 352 -25 21 6 48 60 48 94 0 24 -49 128 -87 187 -161 241 -171 253 -215 253 -11 0 -33 13 -49 29 -24 24 -29 38 -29 75 0 32 6 52 19 65 19 19 111 51 148 51 15 0 16 2 3 10 -13 9 -99 10 -185 2z" fill="#f5f5dc"/>
<path d="M12874 2791 c-117 -43 -172 -103 -194 -213 -26 -130 29 -284 139 -390 135 -130 209 -205 229 -235 30 -42 30 -123 1 -164 -25 -36 -86 -56 -118 -40 -26 14 -63 72 -80 124 -7 20 -18 37 -24 38 -43 3 -116 -3 -139 -12 -27 -11 -27 -13 -21 -73 11 -114 77 -205 183 -253 45 -20 69 -24 142 -24 61 1 99 6 121 17 34 17 117 93 117 107 0 4 9 27 20 49 38 79 23 253 -31 360 -10 20 -25 41 -33 45 -30 17 -204 191 -249 249 -43 55 -47 65 -47 115 0 67 26 114 68 123 50 12 80 -8 109 -70 l26 -56 46 6 c25 3 63 9 83 12 l37 6 -4 54 c-2 29 -8 61 -13 71 -6 10 -11 23 -11 28 -5 40 -61 93 -128 121 -59 25 -169 27 -229 5z" fill="#f5f5dc"/>
<path d="M5130 2774 c-88 -17 -148 -64 -186 -146 l-29 -63 -3 -345 c-3 -454 4 -502 90 -600 44 -50 57 -57 143 -76 80 -17 138 -4 218 49 81 55 115 105 127 187 10 70 8 455 -2 466 -11 10 -252 16 -266 6 -9 -6 -16 -40 -19 -91 l-6 -81 31 -11 c50 -17 62 -46 62 -152 0 -87 -2 -95 -27 -125 -46 -54 -126 -45 -158 18 -12 24 -15 80 -15 322 1 310 6 364 37 407 17 22 28 26 69 26 44 0 50 -3 71 -34 18 -26 23 -48 23 -96 0 -42 5 -66 14 -74 9 -8 45 -11 98 -9 l83 3 3 117 c3 125 -2 146 -53 213 -36 48 -124 86 -209 90 -39 2 -82 1 -96 -1z" fill="#f5f5dc"/>
<path d="M7293 2773 l-63 -4 0 -37 c-1 -20 -1 -291 -1 -602 0 -466 3 -567 14 -575 8 -5 46 -9 85 -7 62 3 72 6 78 25 4 11 8 116 9 231 1 116 5 219 9 228 15 34 114 44 167 17 21 -11 28 -68 38 -296 4 -104 12 -187 18 -195 8 -9 33 -12 86 -10 72 3 75 5 82 30 4 15 9 289 12 609 l5 582 -27 7 c-23 6 -165 -2 -171 -9 -1 -1 -5 -105 -9 -231 -3 -126 -11 -238 -16 -248 -6 -11 -22 -18 -42 -19 -76 -2 -123 3 -136 16 -10 10 -14 66 -17 245 -2 127 -6 236 -10 241 -3 5 -15 8 -27 7 -12 -1 -50 -3 -84 -5z" fill="#f5f5dc"/>
<path d="M13453 2773 c-20 -4 -23 -11 -23 -46 0 -23 0 -271 -1 -552 -1 -676 -5 -601 32 -614 18 -6 58 -11 89 -11 l58 0 11 63 c6 35 11 145 11 245 0 213 1 217 84 208 54 -5 101 -19 109 -33 3 -4 8 -107 12 -228 3 -121 9 -228 11 -237 5 -15 18 -18 84 -18 68 0 79 2 85 19 3 10 7 285 9 610 l4 591 -24 6 c-30 8 -151 1 -160 -9 -4 -4 -9 -113 -12 -242 -4 -187 -8 -237 -19 -247 -18 -15 -150 -13 -168 2 -11 9 -14 65 -17 246 -2 167 -6 237 -15 242 -13 8 -127 12 -160 5z" fill="#f5f5dc"/>
<path d="M5702 2757 c-9 -11 -12 -163 -10 -608 l3 -594 91 -3 91 -3 7 47 c3 26 6 108 7 183 0 157 11 201 52 215 46 16 60 -10 110 -209 64 -254 52 -233 139 -237 40 -2 83 -2 96 0 23 4 24 13 8 97 -2 11 -7 38 -11 60 -4 22 -21 92 -37 155 -47 179 -48 185 -38 219 5 17 20 45 33 60 29 35 36 95 36 297 -1 164 -19 227 -79 275 -50 41 -110 51 -311 56 -143 3 -178 2 -187 -10z m325 -197 c49 -18 64 -55 65 -174 1 -98 -1 -108 -26 -146 -25 -38 -28 -40 -79 -40 -89 0 -91 5 -95 175 -4 174 3 195 67 195 21 0 51 -5 68 -10z" fill="#f5f5dc"/>
<path d="M6466 2754 c-14 -14 -16 -67 -16 -435 0 -446 9 -594 40 -644 27 -44 78 -89 137 -120 48 -25 58 -27 142 -23 66 3 95 9 109 21 10 9 22 17 26 17 18 0 100 89 119 130 22 44 22 56 25 544 2 366 0 502 -9 512 -14 17 -124 19 -163 4 l-26 -10 0 -442 c0 -261 -4 -458 -10 -479 -19 -69 -74 -103 -127 -77 -59 28 -60 36 -62 542 -1 253 -4 463 -7 468 -3 4 -41 8 -84 8 -58 0 -83 -4 -94 -16z" fill="#f5f5dc"/>
<path d="M8181 2756 c-6 -8 -20 -65 -31 -127 -20 -115 -47 -274 -94 -539 -59 -330 -75 -443 -76 -502 l0 -38 90 0 c105 0 98 -8 130 138 10 45 25 94 34 107 35 53 141 39 163 -22 15 -41 31 -102 38 -148 12 -73 16 -76 108 -73 l82 3 0 65 c-1 66 -15 177 -40 305 -7 39 -23 133 -34 210 -12 77 -28 183 -36 235 -9 52 -16 104 -16 115 0 47 -29 213 -44 248 l-15 37 -124 0 c-93 0 -126 -3 -135 -14z m153 -552 c9 -8 16 -31 16 -49 0 -19 5 -46 10 -61 16 -40 -11 -76 -53 -72 l-32 3 -3 77 c-4 105 20 145 62 102z" fill="#f5f5dc"/>
<path d="M8822 2758 c-16 -16 -17 -1159 -2 -1189 9 -16 22 -19 94 -19 l84 0 6 31 c3 17 6 109 6 203 0 122 4 177 13 189 11 16 30 21 161 49 51 10 69 20 123 71 81 77 93 113 93 292 0 319 -71 385 -413 385 -106 0 -157 -4 -165 -12z m335 -220 c42 -44 53 -76 53 -156 0 -49 -6 -79 -23 -111 -27 -52 -82 -87 -123 -77 -42 11 -54 58 -54 203 0 155 8 173 74 173 34 0 48 -6 73 -32z" fill="#f5f5dc"/>
<path d="M9569 2753 c-12 -13 -14 -117 -14 -582 0 -311 3 -578 8 -593 7 -28 9 -28 86 -28 l78 0 7 38 c3 20 6 78 7 127 0 50 4 125 8 169 6 65 11 82 30 97 31 25 58 24 72 -2 12 -23 65 -207 79 -274 4 -22 16 -64 27 -92 22 -63 48 -78 125 -69 29 3 61 6 71 6 24 0 23 76 -2 149 -10 31 -24 83 -31 116 -7 33 -16 69 -20 80 -18 45 -32 134 -28 173 3 24 16 53 31 71 33 39 40 103 35 322 -3 162 -4 166 -31 208 -49 74 -144 100 -368 101 -134 0 -159 -2 -170 -17z m327 -199 c43 -29 54 -64 54 -177 0 -103 0 -104 -32 -140 -42 -47 -101 -59 -138 -29 -24 20 -25 24 -28 170 -4 183 -1 192 69 192 29 0 60 -7 75 -16z" fill="#f5f5dc"/>
<path d="M10491 2752 c-6 -11 -15 -46 -20 -78 -42 -251 -93 -548 -111 -644 -12 -63 -25 -142 -30 -175 -5 -33 -14 -89 -20 -125 -6 -36 -13 -91 -16 -122 l-6 -58 90 0 c101 0 97 -3 127 100 49 166 48 164 87 174 28 7 44 5 74 -10 42 -21 50 -39 81 -179 l18 -80 88 -3 c74 -2 88 0 94 14 3 9 -2 69 -12 133 -17 113 -30 204 -41 286 -3 22 -12 78 -20 125 -9 47 -19 114 -24 150 -19 137 -76 472 -85 498 -3 9 -39 12 -134 12 -116 0 -131 -2 -140 -18z m162 -546 c19 -19 31 -154 16 -172 -14 -17 -52 -18 -80 -4 -23 13 -24 40 -4 116 18 71 39 89 68 60z" fill="#f5f5dc"/>
<path d="M11128 2759 c-4 -13 7 -113 20 -184 19 -97 33 -170 38 -200 9 -55 44 -239 53 -280 5 -22 15 -74 21 -115 6 -41 15 -97 20 -125 5 -27 14 -79 20 -115 19 -110 32 -164 43 -177 6 -9 44 -13 124 -13 l114 0 18 43 c17 40 34 113 51 222 12 77 28 158 34 175 3 8 8 33 10 55 5 36 15 94 30 165 5 24 28 153 47 265 4 28 15 91 23 140 9 50 16 105 16 123 l0 33 -97 -3 -98 -3 -12 -50 c-12 -50 -19 -92 -68 -405 -29 -186 -43 -240 -62 -247 -21 -8 -41 15 -46 55 -34 246 -71 484 -95 607 l-7 40 -97 3 c-66 2 -97 -1 -100 -9z" fill="#f5f5dc"/>
<path d="M11986 2754 c-10 -26 -7 -1168 4 -1184 8 -13 50 -15 256 -18 136 -2 250 1 254 5 13 13 21 157 11 173 -8 12 -42 16 -160 20 -188 6 -184 4 -183 130 1 50 6 109 12 130 9 33 16 41 48 50 20 5 70 10 109 10 85 0 84 -1 80 115 l-2 70 -95 6 c-116 7 -138 14 -146 44 -11 43 0 253 14 267 9 9 60 15 155 19 79 3 149 9 155 13 13 8 17 121 6 150 -5 14 -38 16 -259 16 -221 0 -254 -2 -259 -16z" fill="#f5f5dc"/>
<path d="M14385 2760 c-4 -6 -10 -36 -15 -68 -12 -78 -85 -502 -110 -637 -30 -160 -61 -360 -67 -437 l-6 -68 96 0 95 0 21 112 c12 62 28 122 36 135 34 51 150 33 167 -27 13 -48 27 -106 38 -162 l11 -58 95 0 94 0 0 48 c0 26 -5 74 -10 107 -6 33 -15 89 -20 125 -5 36 -14 92 -19 125 -6 33 -14 83 -17 110 -3 28 -9 61 -14 75 -4 14 -14 61 -20 105 -7 44 -19 118 -27 165 -8 47 -18 115 -23 151 -5 36 -16 98 -25 137 l-17 72 -128 0 c-78 0 -131 -4 -135 -10z m143 -549 c7 -4 20 -39 27 -76 13 -61 13 -72 0 -92 -30 -45 -97 -19 -91 35 2 15 4 46 5 69 0 23 8 49 17 57 18 18 24 19 42 7z" fill="#f5f5dc"/>
<path d="M15032 2758 c-9 -9 -12 -157 -12 -605 l0 -593 27 -11 c42 -16 143 -8 154 13 5 9 9 107 9 218 1 174 3 202 17 207 30 11 47 -13 66 -93 43 -185 83 -333 92 -342 10 -10 137 -3 151 9 6 5 14 22 17 37 3 15 12 70 21 122 31 180 40 211 60 222 38 21 46 -11 46 -193 0 -92 3 -174 6 -183 5 -13 23 -16 95 -16 49 0 89 1 90 3 3 12 15 1186 11 1200 -4 15 -19 17 -132 17 -90 0 -131 -4 -138 -12 -5 -7 -13 -38 -17 -68 -3 -30 -15 -102 -26 -160 -11 -58 -29 -154 -40 -215 -31 -169 -39 -194 -62 -201 -26 -8 -57 27 -57 63 0 32 -99 541 -111 571 -8 21 -13 22 -132 22 -82 0 -127 -4 -135 -12z" fill="#f5f5dc"/>
<path d="M2728 2438 c-3 -40 -5 -43 -51 -59 -128 -46 -174 -49 -763 -49 -541 0 -560 -1 -592 -20 -18 -11 -37 -32 -42 -46 -6 -16 -9 -130 -8 -282 3 -230 5 -257 20 -260 27 -5 31 31 30 238 -1 222 5 288 30 304 33 20 37 7 78 -239 23 -138 23 -149 -3 -233 -25 -79 -25 -83 -11 -164 8 -46 23 -120 34 -165 11 -45 20 -93 20 -107 0 -20 5 -26 21 -26 21 0 21 3 15 63 -4 34 -9 101 -13 149 l-6 88 49 80 c71 118 77 123 171 121 135 -2 363 -39 374 -61 4 -8 12 -91 19 -185 15 -241 18 -255 40 -255 30 0 35 28 45 250 8 176 9 180 44 180 32 0 61 -27 61 -58 0 -21 61 -275 81 -340 7 -22 16 -32 27 -30 23 4 25 54 8 163 -22 138 -27 189 -20 223 7 36 46 79 226 251 135 130 148 136 224 112 84 -27 218 -19 231 15 7 19 -12 63 -72 162 -62 105 -105 152 -137 152 -13 0 -43 16 -65 35 -23 19 -46 35 -52 35 -5 0 -11 -19 -13 -42z" fill="#f5f5dc"/>
<path d="M1650 1720 c-27 -27 -26 -85 1 -130 12 -19 46 -82 76 -140 59 -113 76 -136 91 -126 10 6 1 48 -19 88 -5 10 -9 25 -9 33 0 8 -4 23 -9 33 -48 91 -64 189 -36 229 14 19 13 21 -17 27 -47 9 -56 8 -78 -14z" fill="#f5f5dc"/>
</g>
</svg>